<?xml version="1.0" encoding="UTF-8"?>
<svg width="100vw" height="100vh" viewBox="0 0 1920 1080" version="1.1" xmlns="http://www.w3.org/2000/svg" xmlns:xlink="http://www.w3.org/1999/xlink">
    <!-- Generator: Sketch 59.1 (86144) - https://sketch.com -->
    <title>Splash - 00</title>
    <desc>Created with Sketch.</desc>
    <g id="Splash---00" stroke="none" strokeWidth="1" fill="none" fillRule="evenodd">
        <rect id="Background" fill="#28334A" x="0" y="0" width="1920" height="1080"></rect>
        <g id="Joint-Branding/qvc-stacked-light" transform="translate(622.640803, 371.246102)">
            <path d="M14.3226635,231.459805 L231.468236,231.459805 L231.468236,14.3226635 L14.3226635,14.3226635 L14.3226635,231.459805 Z M1.27897692e-13,244.117533 C1.27897692e-13,245.032194 0.741844841,245.778254 1.66493587,245.778254 L244.121748,245.778254 C245.040624,245.778254 245.786684,245.032194 245.786684,244.117533 L245.786684,1.66915089 C245.786684,0.746059869 245.040624,1.42108547e-14 244.121748,1.42108547e-14 L1.66493587,1.42108547e-14 C0.746059869,1.42108547e-14 0.00421502751,0.741844841 1.27897692e-13,1.65650581 L1.27897692e-13,244.117533 Z" id="Fill-6" fill="#F47963"></path>
            <path d="M185.319816,288.005375 C190.331483,288.005375 195.16612,289.838912 198.930139,293.168784 C199.372717,293.552351 200.059767,293.522846 200.477055,293.084483 L204.207354,289.071777 C204.41389,288.852596 204.519266,288.565974 204.502406,288.266707 C204.489761,287.963225 204.359095,287.689248 204.131483,287.486927 C199.09031,282.989492 192.607598,280.435186 185.871984,280.308735 C185.690738,280.30452 185.505277,280.30452 185.328246,280.30452 C177.989883,280.30452 171.022442,283.162309 165.652497,288.384728 C160.156101,293.733598 157.100206,300.827489 157.041196,308.359743 C156.982186,315.942577 159.9032,323.091264 165.256285,328.486499 C170.613585,333.88595 177.736981,336.857544 185.319816,336.857544 C192.004849,336.857544 198.495992,334.467623 203.596175,330.13879 C203.828001,329.940684 203.967097,329.670922 203.992387,329.36744 C204.013463,329.068173 203.916517,328.777336 203.714196,328.54551 L200.072412,324.448503 C199.671984,323.997495 198.99758,323.946915 198.533927,324.334697 L198.529712,324.334697 C194.706682,327.550763 189.82568,329.232559 184.856163,329.148259 C174.006682,328.908002 165.180414,320.233475 164.763126,309.392425 C164.543945,303.744288 166.584018,298.395418 170.499779,294.319486 C174.419755,290.24777 179.684324,288.005375 185.319816,288.005375" id="Fill-8" fill="#FFFFFF"></path>
            <path d="M95.88199,330.419089 C92.1685507,330.355864 90.1242624,328.665638 88.1474145,326.549694 C89.0620755,325.424282 89.8629307,324.214569 90.5921305,322.966921 C90.676431,322.82361 90.7649466,322.688729 90.8492471,322.545418 C91.1527291,321.993249 91.435136,321.432651 91.7048977,320.863622 C91.8650688,320.530635 92.0378849,320.201863 92.1854109,319.860446 C92.3287218,319.531673 92.4467426,319.190256 92.5774084,318.857269 C93.3698336,316.825626 93.9430773,314.688607 94.2507743,312.463072 C94.2760645,312.290256 94.3139997,312.11744 94.3350749,311.948839 C94.3940853,311.430391 94.4193754,310.903512 94.4530957,310.380849 C94.4826008,309.925626 94.5163211,309.474618 94.5247511,309.019395 C94.5289661,308.871869 94.5500413,308.728558 94.5500413,308.576817 C94.5500413,308.22697 94.507891,307.885552 94.4952459,307.53992 C94.4868159,307.249083 94.499461,306.958246 94.4783858,306.667409 L94.4530957,306.67584 C93.4667792,291.881093 81.1504688,280.138026 66.1112507,280.138026 C50.4271333,280.138026 37.6682451,292.90113 37.6682451,308.576817 C37.6682451,323.932162 49.9044699,336.446579 65.1333643,336.969242 C65.1333643,336.969242 65.7571884,337.011392 66.5538286,336.998747 C69.5717883,336.952382 72.4885873,336.467654 75.4222465,335.460262 C75.7763088,335.333812 76.0376405,335.068265 76.1556612,334.718418 C76.2821121,334.339065 76.2273167,333.896487 76.0165653,333.58036 C75.359021,332.526603 74.0439325,331.026053 73.2304322,330.419089 C72.6108231,329.942791 70.9416722,328.682498 68.3241401,328.91011 C67.5485751,328.981765 65.7192531,328.98598 65.7192531,328.98598 C54.6379458,328.771014 45.6852274,319.71292 45.6852274,308.576817 C45.6852274,297.314263 54.8444822,288.155009 66.1112507,288.155009 C77.3738042,288.155009 86.533059,297.314263 86.533059,308.576817 C86.533059,309.145846 86.4824786,309.698014 86.4361133,310.254398 C86.3644579,311.080543 86.2506521,311.885614 86.0904811,312.669609 C86.0525458,312.842425 86.0356857,313.027886 85.9935354,313.200702 C85.7869991,314.102718 85.5130223,314.979444 85.1842502,315.835094 C85.0746594,316.130146 84.9313485,316.412553 84.8048977,316.699175 C84.543566,317.301924 84.2569441,317.887813 83.932387,318.469486 C83.776431,318.739248 83.62469,319.00901 83.4603039,319.274557 C83.0261561,319.974251 82.5414279,320.665516 82.0103345,321.335705 C81.934464,321.424221 81.8712385,321.529596 81.795368,321.622327 C80.9776527,321.33149 80.1599374,321.183964 79.5824786,321.137599 C75.4686118,320.956353 73.4411835,322.709804 72.7330589,323.624465 C72.3157712,324.172419 72.6866936,324.846823 73.3105177,324.969059 C74.3558445,325.192455 76.3579826,325.765699 79.4138775,328.471747 C80.0672068,329.082926 80.6952459,329.75733 81.2263393,330.360079 L81.3359301,330.490745 C84.2232239,333.761606 88.1727047,338.242181 95.8777749,338.343341 C96.5774695,338.343341 97.1464982,337.774312 97.1464982,337.074618 L97.1464982,331.687813 C97.1464982,330.988118 96.5816845,330.423304 95.88199,330.419089" id="Fill-9" fill="#FFFFFF"></path>
            <path d="M152.252082,281.464495 L146.397409,281.464495 C145.967476,281.464495 145.571263,281.717397 145.390017,282.100965 L125.895515,323.58105 L106.405228,282.100965 C106.223981,281.717397 105.827769,281.464495 105.402051,281.464495 L99.5768831,281.464495 C99.1975306,281.464495 98.8434683,281.658387 98.641147,281.978729 C98.4346106,282.299071 98.4093205,282.699499 98.5737065,283.045131 L124.184214,337.528576 C124.369675,337.916359 124.761672,338.165046 125.191605,338.165046 L126.641575,338.165046 C127.071508,338.165046 127.46772,337.912144 127.644751,337.528576 L153.255258,283.045131 C153.415429,282.703714 153.394354,282.303286 153.187818,281.978729 C152.981282,281.658387 152.631434,281.464495 152.252082,281.464495" id="Fill-10" fill="#FFFFFF"></path>
            <path d="M188.26907,173.919755 C178.599797,173.759584 173.693505,168.865937 169.204501,163.95543 C179.661984,151.639119 184.833823,135.689455 183.742131,119.807232 C181.605112,88.6075979 156.378172,63.7347206 125.009938,62.2805361 C107.441703,61.4628208 90.3076161,68.2490151 77.9955208,80.8140121 C65.6876404,93.3790091 59.2850136,110.078948 60.4820815,128.224641 C62.5432299,159.554941 88.5541647,185.780842 122.126859,185.763982 C129.406211,185.759767 136.774079,184.520549 144.344269,181.624825 C145.28422,181.249688 145.296865,180.124275 144.866932,179.521526 C143.345307,177.270702 140.424293,174.223237 138.860518,173.127329 C137.566505,172.221099 134.139687,169.717372 128.854043,170.345411 C126.902485,170.598313 125.629547,170.771129 122.109999,170.775344 C96.3814707,170.792204 76.5792715,150.467342 75.3653436,126.374244 C74.6825091,112.806071 79.9597236,99.6046047 89.7807377,90.2050934 C99.5933217,80.8140121 113.005539,76.1521917 126.577928,77.429345 C148.727897,79.5073535 166.447873,97.0629431 168.643902,119.128612 C168.901019,121.737714 168.981105,124.329956 168.837794,126.896908 C168.407861,133.202589 166.662839,143.820243 157.431929,154.661294 C155.716413,153.877299 153.78593,153.565387 152.580432,153.485301 C145.212564,152.992143 141.515985,156.667647 140.272552,158.273573 C139.555997,159.209309 140.188252,160.368441 141.263084,160.583408 C142.700408,160.848954 146.704684,161.953292 151.960823,166.459156 C153.638404,167.930201 155.265405,169.700512 156.78703,171.428673 C163.248667,178.762821 171.598637,188.47003 188.26907,188.684996 L188.273285,188.684996 C189.044635,188.684996 189.672675,188.056957 189.672675,187.289822 L189.672675,175.319144 C189.672675,174.543579 189.04885,173.919755 188.273285,173.919755 L188.26907,173.919755 Z" id="Fill-4" fill="#FFFFFF"></path>
        </g>
        <g id="Joint-Branding/HSN" transform="translate(1021.000000, 371.246102)">
            <path d="M138.303988,0 C214.669086,0 276.578397,61.9003561 276.578397,138.289198 C276.578397,214.661139 214.669086,276.578397 138.303988,276.578397 C61.9135359,276.578397 0,214.661139 0,138.289198 C0,61.9003561 61.9135359,0 138.303988,0" id="Fill-11" fill="#1E77BC"></path>
            <polygon id="Fill-12" fill="#FFFFFF" points="94.7938299 176.409903 94.7938299 107.405688 93.2932801 107.405688 80.6734877 107.405688 80.6734877 133.8592 38.0722047 133.8592 38.0722047 107.405688 23.9687227 107.405688 23.9687227 176.409903 38.0722047 176.409903 38.0722047 147.107032 80.6734877 147.107032 80.6734877 176.409903"></polygon>
            <path d="M174.339829,156.715609 C175.490532,137.044075 150.933781,134.73424 137.825046,133.743709 C124.100916,132.702597 118.49493,130.477062 119.000733,125.102902 C119.561332,119.201864 130.267501,116.605407 137.875626,116.984759 C147.578619,117.482133 153.955956,118.266128 164.50617,125.254643 C164.50617,125.254643 168.067868,120.634973 171.848748,116.032163 C158.849603,106.358675 145.542761,105.266983 137.77025,105.140532 C131.978803,105.073092 105.230238,106.143709 104.956261,126.000703 C104.682284,144.137967 128.922908,146.102169 137.673305,147.244442 C144.088577,148.074802 160.059316,148.471015 160.059316,155.817808 C160.059316,162.612432 147.207697,165.609317 137.884056,164.977063 C123.734209,164.032896 118.204093,159.497527 111.177642,152.407851 C107.586438,156.209805 102.309224,161.516525 102.309224,161.516525 C110.237691,170.566189 124.252657,177.588425 137.673305,178.094228 C145.353085,178.37242 173.214417,176.656904 174.339829,156.715609" id="Fill-13" fill="#FFFFFF"></path>
            <path d="M242.02727,176.162903 L254.233989,176.162903 L254.233989,107.52961 L252.762945,107.52961 L240.244313,107.52961 L240.244313,153.443904 C235.671008,148.373226 198.713647,107.52961 198.713647,107.52961 L183.320367,107.52961 L183.320367,176.162903 L197.002346,176.162903 L197.002346,125.961925 C201.638876,131.133764 242.02727,176.162903 242.02727,176.162903" id="Fill-14" fill="#FFFFFF"></path>
        </g>
    </g>
</svg>