<?xml version="1.0" encoding="UTF-8"?>
<svg width="80px" height="80px" viewBox="0 0 80 80" version="1.1" xmlns="http://www.w3.org/2000/svg" xmlns:xlink="http://www.w3.org/1999/xlink">
    <title>Navigation icon QVC</title>
    <desc>Browse QVC content</desc>
    <path d="M13.6042857,26.0792857 C20.7980952,26.0792857 26.6904762,31.6969048 27.162381,38.7735714 L27.162381,38.7735714 L27.1747619,38.7683333 C27.1842857,38.907381 27.1780952,39.0464286 27.1833333,39.1854762 C27.1890476,39.3521429 27.2085714,39.515 27.2085714,39.6835714 C27.2085714,39.7540476 27.1985714,39.822619 27.1971429,39.8930952 C27.1933333,40.1111905 27.1766667,40.3278571 27.162381,40.5445238 C27.1466667,40.795 27.1347619,41.047381 27.1052381,41.2945238 C27.0952381,41.3769048 27.0771429,41.4583333 27.0657143,41.5411905 C26.9180952,42.6054762 26.6452381,43.6283333 26.2642857,44.5997619 C26.202381,44.7602381 26.1461905,44.9221429 26.0780952,45.0802381 C26.0066667,45.2430952 25.9252381,45.3997619 25.847619,45.5597619 C25.7180952,45.8321429 25.5847619,46.1011905 25.437619,46.3630952 C25.3985714,46.4316667 25.3557143,46.4983333 25.3157143,46.5664286 C24.9666667,47.1640476 24.5838095,47.7416667 24.1447619,48.2802381 C25.092381,49.2911905 26.07,50.1011905 27.8461905,50.1302381 C28.1795238,50.1316667 28.4504762,50.402619 28.4504762,50.737381 L28.4504762,50.737381 L28.4504762,53.3145238 C28.4504762,53.6497619 28.1780952,53.9207143 27.8428571,53.9207143 C24.1595238,53.872619 22.2695238,51.7292857 20.8885714,50.1630952 L20.8885714,50.1630952 L20.8361905,50.102619 C20.5809524,49.8130952 20.2804762,49.4907143 19.9685714,49.1997619 C18.5057143,47.902619 17.5490476,47.6307143 17.0490476,47.5240476 C16.7490476,47.465 16.572381,47.1407143 16.7719048,46.8797619 C17.1119048,46.4421429 18.0804762,45.602619 20.0490476,45.6902381 C20.3247619,45.7121429 20.7171429,45.7835714 21.1071429,45.9221429 C21.1438095,45.8778571 21.1742857,45.8288095 21.2104762,45.7840476 C21.4652381,45.462619 21.6957143,45.1345238 21.9047619,44.7992857 C21.9828571,44.6730952 22.0561905,44.5440476 22.1290476,44.4140476 C22.2847619,44.1378571 22.4219048,43.8545238 22.547619,43.5683333 C22.6085714,43.4302381 22.6747619,43.295 22.7290476,43.1540476 C22.8857143,42.7440476 23.017619,42.3254762 23.1166667,41.8940476 C23.1361905,41.8102381 23.1452381,41.7235714 23.162381,41.6392857 C23.2380952,41.2635714 23.2933333,40.8792857 23.3266667,40.485 C23.3485714,40.2197619 23.3747619,39.9545238 23.3747619,39.6835714 C23.3747619,34.2954762 18.992381,29.912619 13.6042857,29.912619 C8.21571429,29.912619 3.83380952,34.2954762 3.83380952,39.6835714 C3.83380952,45.0088095 8.11571429,49.3435714 13.4171429,49.4445238 C13.4171429,49.4445238 14.2919048,49.4430952 14.6638095,49.4083333 C15.9152381,49.2992857 16.7128571,49.9021429 17.0114286,50.1297619 C17.3985714,50.4202381 18.0280952,51.1383333 18.342381,51.642619 C18.4442857,51.7945238 18.4704762,52.0054762 18.41,52.1854762 C18.3528571,52.3545238 18.2290476,52.4811905 18.057619,52.5416667 C16.6561905,53.022619 15.2609524,53.2554762 13.8161905,53.2764286 C13.4347619,53.2845238 13.1357143,53.2640476 13.1357143,53.2640476 C5.85238095,53.0145238 -1.13686838e-13,47.0264286 -1.13686838e-13,39.6835714 C-1.13686838e-13,32.1821429 6.10285714,26.0792857 13.6042857,26.0792857 Z M32.3994762,26.7125238 C32.6037619,26.7125238 32.7923333,26.8320476 32.8794762,27.0168095 L32.8794762,27.0168095 L42.2037619,46.8591905 L51.5285238,27.0168095 C51.6161429,26.8320476 51.8056667,26.7125238 52.0099524,26.7125238 L52.0099524,26.7125238 L54.8109048,26.7125238 C54.9937619,26.7125238 55.1609048,26.8044286 55.2585238,26.9596667 C55.356619,27.1134762 55.3685238,27.3044286 55.2909048,27.4691905 L55.2909048,27.4691905 L43.0394762,53.5310952 C42.9547143,53.715381 42.7661429,53.835381 42.5594762,53.835381 L42.5594762,53.835381 L41.8661429,53.835381 C41.661381,53.835381 41.4728095,53.7163333 41.3856667,53.5310952 L41.3856667,53.5310952 L29.1328095,27.4691905 C29.0551905,27.3034762 29.0670952,27.1125238 29.1651905,26.9582381 C29.2628095,26.8044286 29.4309048,26.7125238 29.6132857,26.7125238 L29.6132857,26.7125238 Z M70.7631905,26.157131 L70.8941429,26.1588571 C74.1150952,26.2207619 77.217,27.4407619 79.6289048,29.5926667 C79.7365238,29.6893333 79.8003333,29.8217143 79.807,29.966 C79.8141429,30.1093333 79.7641429,30.2464762 79.6665238,30.3517143 L79.6665238,30.3517143 L77.8798571,32.2717143 C77.6817619,32.4798095 77.3531905,32.4950476 77.1408095,32.3102857 C75.3398571,30.7179048 73.0274762,29.8407619 70.6298571,29.8407619 C67.9336667,29.8407619 65.4160476,30.913619 63.5403333,32.8626667 C61.667,34.8107619 60.6912857,37.3707619 60.7955714,40.0717143 C60.9950952,45.2569524 65.2174762,49.4074286 70.4065238,49.5221905 C72.7855714,49.563619 75.119381,48.7579048 76.949381,47.2202857 L76.949381,47.2202857 C77.1712857,47.0345714 77.4960476,47.0602857 77.6860476,47.2745714 L77.6860476,47.2745714 L79.4298571,49.2355238 C79.5255714,49.3450476 79.5717619,49.483619 79.5608095,49.6269524 C79.5503333,49.7712381 79.4836667,49.9017143 79.3722381,49.9955238 C76.9327143,52.0679048 73.8289048,53.2098095 70.6298571,53.2098095 C67.0031905,53.2098095 63.594619,51.788381 61.0322381,49.2069524 C58.4703333,46.6255238 57.0750952,43.206 57.1027143,39.5788571 C57.1298571,35.9755238 58.5936667,32.5821905 61.2227143,30.0231429 C63.7903333,27.5231429 67.1236667,26.1564762 70.6336667,26.1564762 C70.719381,26.1564762 70.8065238,26.1574286 70.8941429,26.1588571 Z" id="Icon"></path>
</svg>