<?xml version="1.0" encoding="UTF-8"?>
<svg width="80px" height="80px" viewBox="0 0 80 80" version="1.1" xmlns="http://www.w3.org/2000/svg" xmlns:xlink="http://www.w3.org/1999/xlink">
    <title>Navigation icon search</title>
    <desc>Search content by key words</desc>
    <path d="M35.6999073,17.5 C25.680586,17.5 17.5,25.6805887 17.5,35.6999371 C17.5,45.7191993 25.680586,53.8829787 35.6999073,53.8829787 C45.7192294,53.8829787 53.8829787,45.7191993 53.8829787,35.6999371 C53.8829787,25.6805887 45.7192294,17.5 35.6999073,17.5 Z M51.3316898,49.0957447 C51.9305021,49.0962349 52.503726,49.3388635 52.9212718,49.7685674 L52.9212718,49.7685674 L61.8032673,58.6604957 C62.392467,59.2169482 62.6322029,60.0504782 62.4288047,60.8354058 C62.2254064,61.6203334 61.6111576,62.2320736 60.8260598,62.431605 C60.040962,62.6311364 59.2096272,62.3867891 58.6568776,61.7940354 L58.6568776,61.7940354 L49.7748822,52.9184867 C49.1211324,52.2873707 48.9172497,51.3212752 49.260134,50.4793596 C49.6030184,49.6374439 50.4235253,49.0894848 51.3316898,49.0959127 Z M35.6999073,22.0625481 C43.2540217,22.0625481 49.3203753,28.1457732 49.3203753,35.6999371 C49.3203753,43.2540148 43.2540217,49.3203444 35.6999073,49.3203444 C28.1457937,49.3203444 22.0626041,43.2540148 22.0626041,35.6999371 C22.0626041,28.1457732 28.1457937,22.0625481 35.6999073,22.0625481 Z" id="Icon"></path>
</svg>