<?xml version="1.0" encoding="UTF-8"?>
<svg width="80px" height="80px" viewBox="0 0 80 80" version="1.1" xmlns="http://www.w3.org/2000/svg" xmlns:xlink="http://www.w3.org/1999/xlink">
    <title>Navigation icon HSN</title>
    <desc>Browse HSN content</desc>
    <path d="M52.9855624,28.159412 L57.9797534,28.159412 L70.2576349,42.5664553 L70.2576349,28.159412 L75,28.159412 L75,51.3105409 L70.4718891,51.3105409 L57.6413697,35.4938281 L57.6413697,51.3105409 L52.9855624,51.3105409 L52.9855624,28.159412 Z M27.8833441,46.3101086 L31.3725244,42.8200708 C33.423039,45.8889386 37.3490505,47.2627894 40.0625403,47.2627894 C42.017461,47.2627894 45.2769304,46.5368 45.2769304,44.8357732 C45.2769304,42.1421602 40.9400075,42.4770288 36.9566872,41.8690728 C32.9134423,41.2519818 28.8509359,39.5127323 28.8509359,34.8231293 C28.8509359,29.8164468 33.8425111,27.8533907 39.102558,27.7543484 C43.4996433,27.6716529 48.0843496,28.7603966 50.0982437,31.7107502 L47.24707,34.9089499 C44.9946666,32.4672697 34.1407073,30.806629 34.1407073,34.2983495 C34.1407073,38.8576591 50.8180521,33.633901 50.8180521,44.5566759 C50.8180521,50.48599 45.819343,52.25 39.9593369,52.25 C34.8491015,52.25 30.2258722,49.937892 27.8833441,46.3101086 Z M5,27.9853669 L9.80680776,27.9853669 L9.80680776,36.8171962 L21.6916126,36.8171962 L21.6916126,28.0723895 L26.3262561,28.0723895 L26.3262561,51.3119832 L21.6916126,51.3119832 L21.6916126,41.6524779 L9.80680776,41.6524779 L9.80680776,51.3119832 L5,51.3119832 L5,27.9853669 L5,27.9853669 Z" id="Icon"></path>
</svg>