<?xml version="1.0" encoding="UTF-8"?>
<svg width="80px" height="80px" viewBox="0 0 80 80" version="1.1" xmlns="http://www.w3.org/2000/svg" xmlns:xlink="http://www.w3.org/1999/xlink">
    <title>Navigation icon settings</title>
    <desc>Customize your app experience here</desc>
    <path d="M39.6691176,30.0735294 C34.3743594,30.0735294 30.0735294,34.3743594 30.0735294,39.6691176 C30.0735294,44.9638759 34.3743594,49.2647059 39.6691176,49.2647059 C44.9638759,49.2647059 49.2647059,44.9638759 49.2647059,39.6691176 C49.2647059,34.3743594 44.9638759,30.0735294 39.6691176,30.0735294 Z M39.6691176,46.7566625 C35.7584278,46.7566625 32.5815728,43.5798075 32.5815728,39.6691176 C32.5815728,35.7584278 35.7584278,32.5815728 39.6691176,32.5815728 C43.5798075,32.5815728 46.7566625,35.7584278 46.7566625,39.6691176 C46.7566625,43.5798075 43.5798075,46.7566625 39.6691176,46.7566625 Z M60.1966345,35.2762691 L57.0380988,34.7404429 C56.7090846,33.6781909 56.2860664,32.6535408 55.7690442,31.675893 L57.6303242,29.0719657 C58.4199581,27.9627115 58.2977529,26.4492375 57.3295113,25.4903906 L54.5281909,22.6890537 C54.0017683,22.162628 53.3061384,21.8712137 52.5635065,21.8712137 C51.9806815,21.8712137 51.4260576,22.0498224 50.9560374,22.388239 L48.3427252,24.24953 C47.3274815,23.7137038 46.2652359,23.2718822 45.1653886,22.9428661 L44.638966,19.8219135 C44.4133563,18.4776478 43.2571067,17.5 41.8940481,17.5 L37.9364781,17.5 C36.5734195,17.5 35.4171698,18.4776478 35.1915601,19.8219135 L34.6463367,23.0180698 C33.5934915,23.3470859 32.5688474,23.779507 31.5912054,24.3059327 L29.0060944,22.4446417 C28.5360742,22.1062252 27.9720499,21.9276165 27.3892249,21.9276165 C26.646593,21.9276165 25.9415627,22.2190307 25.4245405,22.7454564 L22.6138197,25.5467934 C21.6549785,26.5056403 21.5233729,28.0191143 22.3130068,29.1283685 L24.1930876,31.7698976 C23.6760654,32.7569459 23.2624476,33.781596 22.9428339,34.8438479 L19.8218998,35.3702737 C18.477642,35.5958847 17.5,36.7521412 17.5,38.1152079 L17.5,42.0728013 C17.5,43.435868 18.477642,44.5921245 19.8218998,44.8177355 L23.0180371,45.3629622 C23.3470512,46.4158137 23.7794698,47.4404638 24.3058924,48.4181116 L22.4540128,50.9938375 C21.6643789,52.1030917 21.7865842,53.6165657 22.7548258,54.5754126 L25.5561461,57.3767495 C26.0825688,57.9031753 26.7781986,58.1945895 27.5208305,58.1945895 C28.1036556,58.1945895 28.6582794,58.0159808 29.1282996,57.6775642 L31.7698131,55.7974723 C32.7192539,56.2956967 33.7156967,56.6999164 34.7403407,57.0195321 L35.2667634,60.1780865 C35.492373,61.5223522 36.6486227,62.5 38.0116813,62.5 L41.9786517,62.5 C43.3417103,62.5 44.49796,61.5223522 44.7235697,60.1780865 L45.2593927,57.0195321 C46.3216383,56.690516 47.3462823,56.2674953 48.3239244,55.75047 L50.9278362,57.611761 C51.3978564,57.9501776 51.9618807,58.1287863 52.5447057,58.1287863 L52.5447057,58.1287863 C53.2873376,58.1287863 53.9829675,57.837372 54.5093901,57.3109463 L57.3107105,54.5096094 C58.2695517,53.5507625 58.4011573,52.0372885 57.6115234,50.9280343 L55.7502434,48.3147065 C56.2672656,47.3276582 56.6996842,46.3030081 57.019298,45.2501567 L60.1778337,44.7237309 C61.5220914,44.4981199 62.5,43.3418634 62.5,41.9787967 L62.5,38.0212033 C62.5185342,36.6581366 61.5408922,35.5018801 60.1966345,35.2762691 Z M59.9804252,41.9787967 C59.9804252,42.1010027 59.8958215,42.2044078 59.7736163,42.2232087 L55.8254467,42.8812409 C55.3272253,42.965845 54.9324083,43.3324629 54.810203,43.8118864 C54.4529877,45.1937539 53.9077643,46.5192187 53.1745328,47.7506789 C52.9207219,48.1831001 52.9395227,48.7189263 53.2309352,49.1325465 L55.5528349,52.4039064 C55.6186378,52.497911 55.6092374,52.6389179 55.5246337,52.723522 L52.7233134,55.524859 C52.6575105,55.5906622 52.5917077,55.6000627 52.5447057,55.6000627 C52.4883033,55.6000627 52.4413013,55.5812618 52.4036996,55.5530604 L49.1417595,53.2311469 C48.7375421,52.9397326 48.1923187,52.9209317 47.7599001,53.1747441 C46.5284472,53.9079799 45.2029903,54.4532066 43.8211309,54.8104241 C43.3323099,54.93263 42.9656941,55.3368498 42.8904909,55.8256737 L42.2230622,59.7738667 C42.2042614,59.8960727 42.100857,59.9806768 41.9786517,59.9806768 L38.0210817,59.9806768 C37.8988764,59.9806768 37.795472,59.8960727 37.7766712,59.7738667 L37.1186429,55.8256737 C37.0340393,55.3274493 36.6674235,54.93263 36.1880029,54.8104241 C34.8437452,54.4626071 33.5464894,53.9267809 32.3338373,53.2311469 C32.1364289,53.1183413 31.9108192,53.0619386 31.6946099,53.0619386 C31.440799,53.0619386 31.1775877,53.1371423 30.9613784,53.2969501 L27.671237,55.6376645 C27.624235,55.6658659 27.577233,55.6846668 27.530231,55.6846668 C27.4926293,55.6846668 27.4174261,55.6752663 27.3516233,55.6094631 L24.5503029,52.8081262 C24.4656993,52.723522 24.4562989,52.5919156 24.5221017,52.4885105 L26.8346011,49.245352 C27.1260136,48.8317318 27.1448144,48.2865051 26.8910035,47.854084 C26.157772,46.6320242 25.5937477,45.3065594 25.2365324,43.9246919 C25.1049267,43.4452684 24.7101098,43.0786505 24.2212888,42.9940464 L20.2449179,42.3172133 C20.1227127,42.2984124 20.0381091,42.1950073 20.0381091,42.0728013 L20.0381091,38.1152079 C20.0381091,37.9930019 20.1227127,37.8895968 20.2449179,37.8707959 L24.1648864,37.2127637 C24.6631078,37.1281596 25.0673251,36.7615417 25.1895304,36.2727178 C25.5373453,34.8908502 26.0731683,33.555985 26.7969994,32.3245248 C27.0508104,31.8921036 27.0226091,31.3562774 26.7311966,30.9520577 L24.3904961,27.6618968 C24.3246932,27.5678922 24.3340936,27.4268853 24.4186973,27.3422812 L27.2200176,24.5409442 C27.2858204,24.475141 27.3516233,24.4657405 27.3986253,24.4657405 C27.4550277,24.4657405 27.5020297,24.4845415 27.5396314,24.5127428 L30.7827707,26.8252559 C31.1963885,27.1166701 31.7416119,27.1354711 32.1740305,26.8816587 C33.396083,26.1484228 34.7215399,25.5843952 36.1033993,25.2271778 C36.5828199,25.0955713 36.9494356,24.700752 37.0340393,24.2119281 L37.7108684,20.2355337 C37.7296692,20.1133278 37.8330736,20.0287236 37.9552789,20.0287236 L41.9128489,20.0287236 C42.0350542,20.0287236 42.1384586,20.1133278 42.1572594,20.2355337 L42.8152877,24.1555254 C42.8998913,24.6537497 43.2665071,25.0579695 43.7553281,25.1801755 C45.1747891,25.5373929 46.5284472,26.0920201 47.7881013,26.8346564 C48.2205199,27.0884688 48.7563429,27.0696679 49.1699607,26.7782536 L52.4131,24.4469396 C52.4601021,24.4187382 52.5071041,24.3999373 52.5541061,24.3999373 C52.5917077,24.3999373 52.666911,24.4093378 52.7327138,24.475141 L55.5340341,27.276478 C55.6186378,27.3610821 55.6280382,27.4926885 55.5622353,27.5960936 L53.2403356,30.8580531 C52.9489231,31.2622728 52.9301223,31.8074995 53.1839332,32.2399206 C53.9171647,33.4713808 54.4623881,34.7968456 54.8196034,36.1787132 C54.9418087,36.6675371 55.3460261,37.034155 55.8348471,37.1093587 L59.7830167,37.7767913 C59.9052219,37.7955922 59.9898256,37.8989973 59.9898256,38.0212033 L59.9898256,41.9787967 L59.9804252,41.9787967 L59.9804252,41.9787967 Z" id="Icon"></path>
</svg>