<?xml version="1.0" encoding="UTF-8"?>
<svg width="54px" height="60px" viewBox="0 0 54 60" version="1.1" xmlns="http://www.w3.org/2000/svg" xmlns:xlink="http://www.w3.org/1999/xlink">
    <!-- Generator: Sketch 59.1 (86144) - https://sketch.com -->
    <title>icon-closed-caption</title>
    <desc>Created with Sketch.</desc>
    <g id="Developer-Assets" stroke="none" strokeWidth="1" fill="none" fillRule="evenodd">
        <g id="Amazon-Fire" transform="translate(-453.000000, -106.000000)" fillRule="nonzero">
            <g id="icons/cc/active" transform="translate(444.000000, 100.000000)">
                <path d="M57,6 L15,6 C11.67,6 9,8.7 9,12 L9,48 C9,51.3 11.67,54 15,54 L57,54 C60.3,54 63,51.3 63,48 L63,12 C63,8.7 60.3,6 57,6 Z M33,27 L28.5,27 L28.5,25.5 L22.5,25.5 L22.5,34.5 L28.5,34.5 L28.5,33 L33,33 L33,36 C33,37.65 31.65,39 30,39 L21,39 C19.35,39 18,37.65 18,36 L18,24 C18,22.35 19.35,21 21,21 L30,21 C31.65,21 33,22.35 33,24 L33,27 Z M54,27 L49.5,27 L49.5,25.5 L43.5,25.5 L43.5,34.5 L49.5,34.5 L49.5,33 L54,33 L54,36 C54,37.65 52.65,39 51,39 L42,39 C40.35,39 39,37.65 39,36 L39,24 C39,22.35 40.35,21 42,21 L51,21 C52.65,21 54,22.35 54,24 L54,27 Z" id="Shape" fill="#FFFFFF"></path>
                <rect id="Rectangle" fill="#F47C6A" x="15" y="60" width="42" height="6" rx="1"></rect>
            </g>
        </g>
    </g>
</svg>