<?xml version="1.0" encoding="UTF-8"?>
<svg width="100px" height="124px" viewBox="0 0 100 124" version="1.1" xmlns="http://www.w3.org/2000/svg" xmlns:xlink="http://www.w3.org/1999/xlink">
    <!-- Generator: Sketch 59.1 (86144) - https://sketch.com -->
    <title>document</title>
    <desc>Created with Sketch.</desc>
    <g id="Developer-Assets" stroke="none" strokeWidth="1" fill="none" fillRule="evenodd">
        <g id="Amazon-Fire" transform="translate(-640.000000, -112.000000)" fill="#FFFFFF">
            <g id="Icons/24/Document" transform="translate(616.000000, 100.000000)">
                <path d="M80.1666667,55.5 L80.1666667,21.5833333 L114.083333,55.5 L80.1666667,55.5 Z M49.3333333,86.3333333 L98.6666667,86.3333333 L98.6666667,74 L49.3333333,74 L49.3333333,86.3333333 Z M49.3333333,111 L98.6666667,111 L98.6666667,98.6666667 L49.3333333,98.6666667 L49.3333333,111 Z M86.3333333,12.3333333 L37,12.3333333 C30.2166667,12.3333333 24.7283333,17.8833333 24.7283333,24.6666667 L24.6666667,123.333333 C24.6666667,130.116667 30.155,135.666667 36.9383333,135.666667 L111,135.666667 C117.783333,135.666667 123.333333,130.116667 123.333333,123.333333 L123.333333,49.3333333 L86.3333333,12.3333333 Z" id="Fill-1"></path>
            </g>
        </g>
    </g>
</svg>