<?xml version="1.0" encoding="UTF-8"?>
<svg viewBox="0 0 301 96" version="1.1" xmlns="http://www.w3.org/2000/svg" xmlns:xlink="http://www.w3.org/1999/xlink">
    <!-- Generator: Sketch 59.1 (86144) - https://sketch.com -->
    <title>channel-hsn-2</title>
    <desc>Created with Sketch.</desc>
    <g id="Developer-Assets" stroke="none" strokeWidth="1" fill="none" fillRule="evenodd">
        <g id="Amazon-Fire" transform="translate(-1400.000000, -3527.000000)">
            <g id="Channel-Logos" transform="translate(120.000000, 3449.000000)">
                <g id="Channel-Branding/HSN-2" transform="translate(1280.000024, 78.000000)">
                    <circle id="Background" fill="#0177C8" fillRule="evenodd" cx="48.0000019" cy="48.0000019" r="48.0000019"></circle>
                    <text id="2" font-family="Helvetica" font-size="60.0000024" font-weight="normal" fill="#0177C8">
                        <tspan x="116.400005" y="71.2000005">2</tspan>
                    </text>
                    <path d="M61.5685901,35.6277952 L66.7870103,35.6277952 L79.6161442,50.6816859 L79.6161442,35.6277952 L84.5714319,35.6277952 L84.5714319,59.8183634 L79.8400179,59.8183634 L66.4334338,43.2915119 L66.4334338,59.8183634 L61.5685901,59.8183634 L61.5685901,35.6277952 Z M35.3393324,54.5934218 L38.9851699,50.9466883 C41.1277485,54.1533421 45.2300301,55.588876 48.0653502,55.588876 C50.1080429,55.588876 53.5138559,54.8302911 53.5138559,53.0528916 C53.5138559,50.2383408 48.9822138,50.5882443 44.8200504,49.9529923 C40.5952719,49.3081952 36.3503671,47.4908569 36.3503671,42.5907001 C36.3503671,37.3592275 41.5660541,35.3080341 47.0622666,35.204545 C51.6567722,35.1181367 56.4473227,36.2557628 58.5516366,39.3385814 L55.5724509,42.6803738 C53.218919,40.129067 41.8776387,38.3938669 41.8776387,42.0423587 C41.8776387,46.8063722 59.3037629,41.3480778 59.3037629,52.7612635 C59.3037629,58.9567919 54.0806218,60.8000024 47.9575131,60.8000024 C42.6178383,60.8000024 37.7870353,58.3840854 35.3393324,54.5934218 Z M11.4285719,35.4459358 L16.4511957,35.4459358 L16.4511957,44.6742966 L28.8696045,44.6742966 L28.8696045,35.5368655 L33.7123342,35.5368655 L33.7123342,59.8198706 L28.8696045,59.8198706 L28.8696045,49.7266728 L16.4511957,49.7266728 L16.4511957,59.8198706 L11.4285719,59.8198706 L11.4285719,35.4459358 L11.4285719,35.4459358 Z" id="HSN" fill="#FFFFFF" fillRule="nonzero"></path>
                </g>
            </g>
        </g>
    </g>
</svg>